<?xml version="1.0" encoding="UTF-8" standalone="no"?>
<!-- Created with Inkscape (http://www.inkscape.org/) -->
<svg
   xmlns:dc="http://purl.org/dc/elements/1.1/"
   xmlns:cc="http://creativecommons.org/ns#"
   xmlns:rdf="http://www.w3.org/1999/02/22-rdf-syntax-ns#"
   xmlns:svg="http://www.w3.org/2000/svg"
   xmlns="http://www.w3.org/2000/svg"
   xmlns:xlink="http://www.w3.org/1999/xlink"
   xmlns:sodipodi="http://sodipodi.sourceforge.net/DTD/sodipodi-0.dtd"
   xmlns:inkscape="http://www.inkscape.org/namespaces/inkscape"
   width="212.8"
   height="94.830002"
   id="svg2"
   sodipodi:version="0.32"
   inkscape:version="0.46"
   sodipodi:docbase="Y:\work\origo\docs\images"
   sodipodi:docname="logo.svg"
   inkscape:output_extension="org.inkscape.output.svg.inkscape"
   version="1.0"
   inkscape:export-filename="Y:\work\origo\docs\images\logo.png"
   inkscape:export-xdpi="127.97765"
   inkscape:export-ydpi="127.97765">
  <defs
     id="defs4">
    <linearGradient
       id="linearGradient3167">
      <stop
         style="stop-color:#2072d0;stop-opacity:1;"
         offset="0"
         id="stop3169" />
      <stop
         style="stop-color:#1857a0;stop-opacity:1;"
         offset="1"
         id="stop3171" />
    </linearGradient>
    <inkscape:perspective
       sodipodi:type="inkscape:persp3d"
       inkscape:vp_x="0 : 47.415001 : 1"
       inkscape:vp_y="0 : 1000 : 0"
       inkscape:vp_z="212.8 : 47.415001 : 1"
       inkscape:persp3d-origin="106.4 : 31.610001 : 1"
       id="perspective24" />
    <linearGradient
       inkscape:collect="always"
       xlink:href="#linearGradient3167"
       id="linearGradient3173"
       x1="308.36107"
       y1="887.63374"
       x2="308.36108"
       y2="900.29486"
       gradientUnits="userSpaceOnUse" />
    <linearGradient
       inkscape:collect="always"
       xlink:href="#linearGradient3167"
       id="linearGradient3181"
       gradientUnits="userSpaceOnUse"
       x1="308.36107"
       y1="887.63374"
       x2="308.36108"
       y2="900.29486" />
    <linearGradient
       inkscape:collect="always"
       xlink:href="#linearGradient3167"
       id="linearGradient3184"
       gradientUnits="userSpaceOnUse"
       x1="308.36108"
       y1="887.63373"
       x2="308.36108"
       y2="900.29486" />
  </defs>
  <sodipodi:namedview
     id="base"
     pagecolor="#ffffff"
     bordercolor="#666666"
     borderopacity="1.0"
     inkscape:pageopacity="0.0"
     inkscape:pageshadow="2"
     inkscape:zoom="1.3062462"
     inkscape:cx="258.78893"
     inkscape:cy="173.24433"
     inkscape:document-units="px"
     inkscape:current-layer="layer1"
     inkscape:window-width="1920"
     inkscape:window-height="1144"
     inkscape:window-x="0"
     inkscape:window-y="22"
     showguides="false"
     inkscape:guide-bbox="true"
     width="212.8px"
     height="94.83px"
     showgrid="false">
    <sodipodi:guide
       orientation="horizontal"
       position="122.96527"
       id="guide7140" />
    <sodipodi:guide
       orientation="horizontal"
       position="106.7979"
       id="guide7142" />
    <sodipodi:guide
       orientation="horizontal"
       position="114.72613"
       id="guide7144" />
    <sodipodi:guide
       orientation="vertical"
       position="338.42653"
       id="guide7146" />
    <sodipodi:guide
       orientation="vertical"
       position="372.93764"
       id="guide7148" />
    <sodipodi:guide
       orientation="vertical"
       position="343.71201"
       id="guide7150" />
    <sodipodi:guide
       orientation="horizontal"
       position="90.475075"
       id="guide7152" />
    <sodipodi:guide
       orientation="horizontal"
       position="139.75445"
       id="guide7154" />
    <sodipodi:guide
       orientation="vertical"
       position="538.57663"
       id="guide7156" />
    <sodipodi:guide
       orientation="horizontal"
       position="34.572204"
       id="guide7158" />
    <sodipodi:guide
       orientation="horizontal"
       position="19.535378"
       id="guide7160" />
    <sodipodi:guide
       orientation="horizontal"
       position="26.824698"
       id="guide7162" />
    <sodipodi:guide
       orientation="vertical"
       position="534.82783"
       id="guide7164" />
  </sodipodi:namedview>
  <metadata
     id="metadata7">
    <rdf:RDF>
      <cc:Work
         rdf:about="">
        <dc:format>image/svg+xml</dc:format>
        <dc:type
           rdf:resource="http://purl.org/dc/dcmitype/StillImage" />
      </cc:Work>
    </rdf:RDF>
  </metadata>
  <g
     inkscape:label="Ebene 1"
     inkscape:groupmode="layer"
     id="layer1"
     transform="translate(-308.36107,-844.45392)">
    <path
       style="font-size:48.81682968px;font-style:normal;font-weight:normal;fill:#000000;fill-opacity:1;stroke:none;stroke-width:1px;stroke-linecap:butt;stroke-linejoin:miter;stroke-opacity:1;font-family:Lucida Sans Unicode"
       d="M 401.07235,844.45392 C 400.00761,844.45399 399.14846,844.8089 398.48302,845.50883 C 397.81754,846.20891 397.47605,847.05261 397.47606,848.05022 C 397.47603,848.98294 397.84639,849.79678 398.57891,850.4957 C 399.31142,851.19475 400.14171,851.55068 401.07235,851.55062 C 402.07205,851.55067 402.93071,851.19476 403.62972,850.4957 C 404.32869,849.79677 404.66863,848.9541 404.66865,847.95432 C 404.66864,846.9567 404.31427,846.11145 403.58177,845.4449 C 402.84924,844.77849 402.00501,844.45399 401.07235,844.45392 z M 387.85396,859.73419 C 386.72213,859.73426 385.62707,860.01548 384.56134,860.58133 C 383.49557,861.14729 382.51792,861.88797 381.65234,862.78705 C 380.78671,863.68625 380.03213,864.66334 379.36669,865.72802 C 378.70121,866.79281 378.19745,867.82916 377.86423,868.82884 C 377.93127,867.96327 377.98998,867.1036 378.05604,866.27147 C 378.12207,865.43944 378.16791,864.59574 378.16792,863.73009 C 378.16791,862.59834 377.693,861.69539 376.76136,861.02887 C 375.82971,860.36245 374.86805,860.03793 373.86835,860.03788 C 372.73654,860.03795 371.74502,860.43713 370.87943,861.23665 C 370.0138,862.03628 369.56877,863.02677 369.56877,864.22557 L 369.56877,914.15819 L 378.05604,914.06229 L 378.05604,886.50664 C 378.05603,883.1113 378.42637,880.35714 379.1589,878.25913 C 379.8914,876.16117 380.79435,874.47325 381.86012,873.20833 C 382.92585,871.94348 384.11004,870.98081 385.40847,870.31531 C 386.70686,869.64988 387.89206,869.07301 388.95682,868.5731 C 390.02153,868.07329 390.90952,867.52626 391.64205,866.92679 C 392.37454,866.32742 392.74489,865.45331 392.74492,864.32148 C 392.74489,862.99061 392.25557,861.89453 391.29042,861.02887 C 390.32522,860.16331 389.18485,859.73424 387.85396,859.73419 z M 335.82749,859.8301 C 332.09886,859.83016 328.76781,860.61513 325.83777,862.17968 C 322.90771,863.74433 320.45076,865.80207 318.45337,868.36531 C 316.45597,870.92865 314.91585,873.86049 313.85011,877.15626 C 313.41811,878.49218 313.08405,879.84784 312.82716,881.20011 L 321.90581,881.20011 C 321.95358,880.9692 321.99662,880.74506 322.04967,880.51281 C 322.58202,878.18222 323.42572,876.03535 324.59106,874.07144 C 325.75635,872.1076 327.25163,870.49437 329.08244,869.22842 C 330.9132,867.96256 333.13474,867.32643 335.73159,867.32638 C 338.39544,867.32644 340.66026,867.93216 342.5246,869.1645 C 344.38887,870.39691 345.91401,871.96585 347.11188,873.86365 C 348.30966,875.76152 349.18377,877.89396 349.7172,880.25708 C 350.25055,882.62027 350.51633,884.93038 350.51638,887.19394 C 350.51633,889.52461 350.25055,891.89398 349.7172,894.29063 C 349.18378,896.68732 348.32511,898.86303 347.15983,900.82791 C 345.99447,902.79279 344.46933,904.39163 342.57255,905.62297 C 340.6757,906.85435 338.36659,907.47708 335.63569,907.47707 C 333.03884,907.47708 330.81729,906.83992 328.98653,905.57502 C 327.15573,904.31016 325.67488,902.68147 324.54311,900.68406 C 323.4638,898.77935 322.66377,896.70472 322.12959,894.46645 L 313.03494,894.40252 C 313.2506,895.40416 313.49526,896.40157 313.80215,897.39145 C 314.83438,900.72078 316.37449,903.69591 318.40542,906.32625 C 320.43635,908.95661 322.9077,911.07462 325.83777,912.67172 C 328.76782,914.26883 332.12973,915.06925 335.92339,915.06925 C 339.65198,915.06926 342.98301,914.26883 345.91312,912.67172 C 348.84314,911.07462 351.31605,908.9566 353.31349,906.32625 C 355.31086,903.69592 356.82055,900.72079 357.85282,897.39145 C 358.88501,894.06211 359.40318,890.70122 359.40323,887.30582 C 359.40318,883.84343 358.87058,880.45211 357.80488,877.15626 C 356.73907,873.86048 355.19897,870.92865 353.20161,868.36531 C 351.20418,865.80206 348.74621,863.74433 345.81721,862.17968 C 342.88813,860.61514 339.55608,859.83015 335.82749,859.8301 z M 401.37604,859.8301 C 400.17718,859.83016 399.14082,860.21595 398.27523,860.98091 C 397.40961,861.746 396.98055,862.76792 396.98056,864.03377 L 396.98056,914.06229 L 405.37193,914.06229 L 405.37193,864.03377 C 405.37192,862.96909 404.98612,861.99042 404.22111,861.12476 C 403.45606,860.25921 402.50782,859.83015 401.37604,859.8301 z M 457.98978,859.8301 C 456.79091,859.83016 455.90236,860.08254 455.33651,860.58133 C 454.77056,861.08023 454.37036,861.71738 454.13775,862.48337 C 453.90503,863.24947 453.81647,864.09316 453.85003,865.02475 C 453.88351,865.95645 453.89795,866.8604 453.89799,867.72597 C 452.16672,865.19626 449.93076,863.25491 447.20088,861.92394 C 444.47093,860.59308 441.6148,859.94203 438.61772,859.94198 C 434.75701,859.94203 431.3961,860.78574 428.53209,862.48337 C 425.66805,864.18111 423.28425,866.38667 421.38744,869.11654 C 419.49062,871.8465 418.05405,874.91174 417.08787,878.30709 C 416.12166,881.70251 415.64934,885.09325 415.64935,888.48861 C 415.64934,891.88401 416.12167,895.18619 417.08787,898.38242 C 418.05404,901.57867 419.50504,904.43584 421.43539,906.96559 C 423.36573,909.49538 425.73511,911.53922 428.53209,913.0713 C 431.32903,914.6034 434.58538,915.35695 438.31403,915.35695 C 441.51025,915.35694 444.44209,914.67653 447.10498,913.31106 C 449.7678,911.9456 451.95894,909.90229 453.69021,907.17338 C 453.75721,907.50662 453.80205,907.87799 453.80209,908.27624 C 453.80204,908.60949 453.80205,908.93398 453.80209,909.26723 C 453.80204,911.9311 453.4904,914.4483 452.89103,916.81146 C 452.29155,919.1746 451.3299,921.23235 449.998,922.99709 C 448.66603,924.76183 446.94824,926.16853 444.8513,927.20078 C 442.7543,928.23293 440.20825,928.75116 437.21116,928.75116 C 435.0146,928.75116 433.30688,928.78947 430.81774,928.78947 C 428.91574,928.78947 426.50375,929.75125 426.50375,932.75247 C 426.50375,935.77502 428.91173,936.51364 430.82327,936.51364 C 433.04904,936.51364 434.66531,936.52331 436.81157,936.53518 C 440.34102,936.53513 443.6422,935.899 446.70539,934.63311 C 449.76851,933.36721 452.43354,931.62053 454.69717,929.39051 C 456.96069,927.16043 458.73722,924.54026 460.03567,921.51065 C 461.33405,918.48102 461.98561,915.19424 461.98566,911.66476 L 461.98566,864.12967 C 461.98562,863.06295 461.60084,862.08688 460.83485,861.1887 C 460.06877,860.29064 459.12153,859.83015 457.98978,859.8301 z M 495.58309,859.8301 C 491.85445,859.83016 488.5394,860.61513 485.60935,862.17968 C 482.67929,863.74433 480.20636,865.80207 478.20897,868.36531 C 476.21156,870.92865 474.68744,873.86049 473.62169,877.15626 C 472.55593,880.45211 472.02333,883.79859 472.02334,887.19394 C 472.02333,890.6564 472.52553,894.06212 473.55775,897.39145 C 474.58998,900.72078 476.13009,903.69591 478.16102,906.32625 C 480.19193,908.95661 482.67928,911.07462 485.60935,912.67172 C 488.53941,914.26883 491.90131,915.06925 495.69498,915.06925 C 499.42356,915.06926 502.73861,914.26883 505.66872,912.67172 C 508.59872,911.07462 511.07166,908.9566 513.06909,906.32625 C 515.06646,903.69592 516.57615,900.72079 517.60842,897.39145 C 518.64061,894.06211 519.15878,890.70122 519.15883,887.30582 C 519.15877,883.84343 518.62618,880.45211 517.56048,877.15626 C 516.49467,873.86048 514.97056,870.92865 512.9732,868.36531 C 510.97576,865.80206 508.50181,863.74433 505.57281,862.17968 C 502.64374,860.61514 499.31168,859.83015 495.58309,859.8301 z M 495.48719,867.32638 C 498.15103,867.32644 500.41586,867.93216 502.2802,869.1645 C 504.14448,870.39691 505.66961,871.96585 506.86748,873.86365 C 508.06528,875.76152 508.93937,877.89396 509.47279,880.25708 C 510.00615,882.62027 510.27193,884.93038 510.27198,887.19394 C 510.27193,889.52461 510.00615,891.89398 509.47279,894.29063 C 508.93938,896.68732 508.08071,898.86303 506.91543,900.82791 C 505.75009,902.79279 504.22493,904.39163 502.32815,905.62297 C 500.43129,906.85435 498.12219,907.47708 495.39129,907.47707 C 492.79444,907.47708 490.57289,906.83992 488.74213,905.57502 C 486.91133,904.31016 485.43048,902.68147 484.29871,900.68406 C 483.1669,898.68669 482.33763,896.51097 481.80527,894.14678 C 481.2729,891.78263 481.00607,889.50238 481.0061,887.30582 C 481.00608,885.10932 481.27289,882.84349 481.80527,880.51281 C 482.33764,878.18222 483.18132,876.03535 484.34666,874.07144 C 485.51197,872.1076 487.02322,870.49437 488.85402,869.22842 C 490.68479,867.96256 492.89034,867.32643 495.48719,867.32638 z M 439.72057,867.63007 C 442.04916,867.63011 444.27016,868.22346 446.4017,869.42023 C 448.13289,870.41999 449.49475,871.61859 450.49349,873.01653 C 451.49215,874.41454 452.24829,875.92425 452.74718,877.55586 C 453.24596,879.18753 453.54163,880.91977 453.64225,882.75051 C 453.74279,884.58134 453.80205,886.40265 453.80209,888.2009 C 453.80204,890.33041 453.55068,892.52155 453.05086,894.78612 C 452.55096,897.05074 451.75155,899.13889 450.65333,901.0357 C 449.55503,902.93251 448.11846,904.48651 446.35375,905.71887 C 444.58898,906.95127 442.44212,907.57298 439.91238,907.57297 C 437.04936,907.57298 434.63569,906.98166 432.67183,905.78281 C 430.70792,904.58399 429.12355,903.014 427.92472,901.08364 C 426.72585,899.15333 425.86774,896.9766 425.33538,894.54637 C 424.803,892.11618 424.5362,889.70353 424.53621,887.30582 C 424.53619,884.97521 424.81743,882.62026 425.38333,880.25708 C 425.94921,877.89397 426.82277,875.77596 428.02062,873.91161 C 429.21843,872.04733 430.7884,870.53764 432.71978,869.37228 C 434.65111,868.207 436.98962,867.63011 439.72057,867.63007 z"
       id="text5178"
       sodipodi:nodetypes="csssssssccssscsssssccccsssssssccsssccssssssssssssssccsssssssssssccsccccsccssscssssssssssscssssssszscsssccsccsssssssssssssssccssssssssssssssscccsssssssssssssssc"
       inkscape:export-filename="C:\Dokumente und Einstellungen\mvolke\Desktop\Origo\Corporate Design\logo.png"
       inkscape:export-xdpi="65.512024"
       inkscape:export-ydpi="65.512024" />
    <text
       xml:space="preserve"
       style="font-size:9.71306705px;font-style:normal;font-weight:normal;fill:#000000;fill-opacity:1;stroke:none;stroke-width:1px;stroke-linecap:butt;stroke-linejoin:miter;stroke-opacity:1;font-family:Lucida Sans Unicode"
       x="314.61298"
       y="937.07184"
       id="text5182"
       inkscape:export-filename="C:\Dokumente und Einstellungen\mvolke\Desktop\Origo\Corporate Design\logo.png"
       inkscape:export-xdpi="65.512024"
       inkscape:export-ydpi="65.512024"><tspan
         sodipodi:role="line"
         id="tspan5184"
         x="314.61298"
         y="937.07184"
         style="font-size:17.2676754px">social client</tspan></text>
    <path
       style="fill:url(#linearGradient3184);fill-opacity:1.0;fill-rule:evenodd;stroke:none;stroke-width:1px;stroke-linecap:butt;stroke-linejoin:miter;stroke-opacity:1"
       d="M 311.56097,883.64175 L 328.45243,883.64175 C 328.45243,883.64175 328.3965,873.89743 331.18025,875.07064 C 334.70422,876.55584 346.05454,884.61285 346.05454,887.81463 C 346.05454,891.0959 334.06773,899.08326 331.25691,900.19866 C 328.37753,901.34128 328.47499,891.93009 328.47499,891.93009 L 311.56097,891.82518 C 308.34048,891.82518 308.46599,889.29715 308.46599,886.26464 L 308.36107,881.16206 C 308.36107,882.88731 310.65124,883.57403 311.56097,883.64175 z"
       id="path5191"
       sodipodi:nodetypes="ccszzccccc"
       inkscape:export-filename="C:\Dokumente und Einstellungen\mvolke\Desktop\Origo\Corporate Design\logo.png"
       inkscape:export-xdpi="65.512024"
       inkscape:export-ydpi="65.512024" />
  </g>
</svg>
